HIERARCHY
ROOT joint_Root
{
	OFFSET 0.0 0.0 0.0
	CHANNELS 6 Xposition Yposition Zposition Zrotation Xrotation Yrotation 
	JOINT Hips
	{
		OFFSET -0.726466 93.3139 -2.00062
		CHANNELS 6 Xposition Yposition Zposition Zrotation Xrotation Yrotation 
		JOINT Spine
		{
			OFFSET 15.7357 0.0 0.0
			CHANNELS 6 Xposition Yposition Zposition Zrotation Xrotation Yrotation 
			JOINT Chest
			{
				OFFSET 8.98455 -0.406207 0.0
				CHANNELS 6 Xposition Yposition Zposition Zrotation Xrotation Yrotation 
				JOINT Neck
				{
					OFFSET 16.3773 0.0 0.0
					CHANNELS 6 Xposition Yposition Zposition Zrotation Xrotation Yrotation 
					JOINT Head
					{
						OFFSET 6.45672 0.0 0.0
						CHANNELS 6 Xposition Yposition Zposition Zrotation Xrotation Yrotation 
						End Site
						{
							OFFSET 0.0 0.0 0.0
						}
					}
				}
				JOINT Shoulder_L
				{
					OFFSET 12.9942 -0.242716 4.98039
					CHANNELS 6 Xposition Yposition Zposition Zrotation Xrotation Yrotation 
					JOINT UpperArm_L
					{
						OFFSET 5.34809 0.0 0.0
						CHANNELS 6 Xposition Yposition Zposition Zrotation Xrotation Yrotation 
						JOINT LowerArm_L
						{
							OFFSET 24.3286 1.87007e-05 0.0
							CHANNELS 6 Xposition Yposition Zposition Zrotation Xrotation Yrotation 
							JOINT Hand_L
							{
								OFFSET 22.2916 0.0 0.0
								CHANNELS 6 Xposition Yposition Zposition Zrotation Xrotation Yrotation 
								End Site
								{
									OFFSET 0.0 0.0 0.0
								}
							}
						}
					}
				}
				JOINT Shoulder_R
				{
					OFFSET 12.9945 -0.242716 -4.98039
					CHANNELS 6 Xposition Yposition Zposition Zrotation Xrotation Yrotation 
					JOINT UpperArm_R
					{
						OFFSET -5.34813 0.0 0.0
						CHANNELS 6 Xposition Yposition Zposition Zrotation Xrotation Yrotation 
						JOINT LowerArm_R
						{
							OFFSET -24.3289 0.000322201 0.0
							CHANNELS 6 Xposition Yposition Zposition Zrotation Xrotation Yrotation 
							JOINT Hand_R
							{
								OFFSET -22.2915 -0.000108084 0.0
								CHANNELS 6 Xposition Yposition Zposition Zrotation Xrotation Yrotation 
								End Site
								{
									OFFSET 0.0 0.0 0.0
								}
							}
						}
					}
				}
			}
		}
		JOINT UpperLeg_L
		{
			OFFSET -2.19248 -6.46944 0.0
			CHANNELS 6 Xposition Yposition Zposition Zrotation Xrotation Yrotation 
			JOINT LowerLeg_L
			{
				OFFSET 39.0811 0.0 -1.23785e-05
				CHANNELS 6 Xposition Yposition Zposition Zrotation Xrotation Yrotation 
				JOINT Foot_L
				{
					OFFSET 40.9854 0.0 -1.26872e-05
					CHANNELS 6 Xposition Yposition Zposition Zrotation Xrotation Yrotation 
					JOINT Toes_L
					{
						OFFSET 11.7543 0.0 0.0
						CHANNELS 6 Xposition Yposition Zposition Zrotation Xrotation Yrotation 
						End Site
						{
							OFFSET 0.0 0.0 0.0
						}
					}
				}
			}
		}
		JOINT UpperLeg_R
		{
			OFFSET -2.19251 6.46944 0.0
			CHANNELS 6 Xposition Yposition Zposition Zrotation Xrotation Yrotation 
			JOINT LowerLeg_R
			{
				OFFSET -39.0811 -0.00228153 -0.0401928
				CHANNELS 6 Xposition Yposition Zposition Zrotation Xrotation Yrotation 
				JOINT Foot_R
				{
					OFFSET -40.9854 0.0 0.0
					CHANNELS 6 Xposition Yposition Zposition Zrotation Xrotation Yrotation 
					JOINT Toes_R
					{
						OFFSET -11.7543 0.0 0.0
						CHANNELS 6 Xposition Yposition Zposition Zrotation Xrotation Yrotation 
						End Site
						{
							OFFSET 0.0 0.0 0.0
						}
					}
				}
			}
		}
	}
}
MOTION
Frames:	4
Frame Time:	0.0333333
0.000000 0.000000 0.000000 0.000000 0.000000 -0.000000 4.046090 92.106700 -23.677600 85.722900 -5.535250 -3.193250 15.735700 0.000005 -0.000001 124.663000 81.767700 -124.138000 8.984550 -0.406207 -0.000000 5.793530 9.331490 0.578075 16.377300 -0.000001 -0.000001 0.781362 -0.475202 -0.799149 6.456720 -0.000001 -0.000000 -0.762970 -7.172970 1.560190 12.994200 -0.242716 4.980390 -85.983300 -8.928160 -65.655300 5.348090 -0.000007 -0.000001 -77.198800 30.168900 24.637300 24.328600 0.000019 0.000005 -2.852580 0.161011 -93.227800 22.291600 -0.000001 0.000005 6.693240 5.639080 -14.047700 12.994500 -0.242716 -4.980390 89.899000 0.326769 -72.824500 -5.348130 -0.000001 -0.000004 -58.377000 41.932400 -31.585600 -24.328900 0.000322 -0.000009 -6.331170 1.445390 -102.804000 -22.291500 -0.000108 -0.000004 17.066600 5.585260 -10.497700 -2.192480 -6.469440 -0.000000 -179.693000 -5.604750 -24.444600 39.081100 -0.000007 -0.000012 0.006893 -0.022035 17.370600 40.985400 -0.000006 -0.000013 0.236444 0.185084 -70.461800 11.754300 -0.000000 0.000003 -0.006712 -0.077183 -19.718600 -2.192510 6.469440 -0.000001 -179.400000 3.157910 -171.079000 -39.081100 -0.002282 -0.040193 0.073219 -0.052935 52.896300 -40.985400 0.000008 0.000006 -0.474161 -0.376921 -34.046600 -11.754300 -0.000006 -0.000006 -0.026402 -0.200474 -24.778000
0.000000 0.000000 0.000000 0.000000 0.000000 -0.000000 4.362910 89.767500 -14.306100 88.587100 -3.977030 -2.921980 15.735700 0.000005 -0.000001 115.029000 82.153100 -115.662000 8.984550 -0.406207 -0.000000 6.524570 6.626290 -1.644400 16.377300 -0.000001 -0.000001 0.487724 -0.446082 -0.781774 6.456720 -0.000001 -0.000000 -1.906000 -6.086160 2.237660 12.994200 -0.242716 4.980390 -86.898100 -7.153520 -66.484400 5.348090 -0.000007 -0.000001 -75.777000 26.646900 19.626400 24.328600 0.000019 0.000005 -1.623600 0.107594 -93.793000 22.291600 -0.000001 0.000005 6.892100 5.636990 -13.876800 12.994500 -0.242716 -4.980390 89.393000 1.955060 -72.748300 -5.348130 -0.000001 -0.000004 -60.362600 43.185100 -25.761100 -24.328900 0.000322 -0.000009 -6.182820 0.571280 -95.255900 -22.291500 -0.000108 -0.000004 17.161100 5.579650 -10.193400 -2.192480 -6.469440 -0.000000 175.432000 -5.946760 -30.231000 39.081100 -0.000007 -0.000012 0.246968 -0.411092 30.996100 40.985400 -0.000006 -0.000013 5.968210 -4.573020 -60.065100 11.754300 -0.000000 0.000003 -0.010994 -0.110931 -21.097800 -2.192510 6.469440 -0.000001 177.849000 3.874350 -177.889000 -39.081100 -0.002282 -0.040193 0.050986 -0.016118 71.399700 -40.985400 0.000008 0.000006 2.565970 -3.516410 -36.841800 -11.754300 -0.000006 -0.000006 -0.025909 -0.198061 -24.678100
0.000000 0.000000 0.000000 0.000000 0.000000 -0.000000 4.643050 86.466900 -5.065780 90.772300 -1.837390 -2.486920 15.735700 0.000005 -0.000001 103.935000 82.420200 -105.456000 8.984550 -0.406207 -0.000000 7.008650 3.648470 -3.262890 16.377300 -0.000001 -0.000001 -0.555703 -1.412310 -0.043422 6.456720 -0.000001 -0.000000 -1.818660 -4.536610 2.566470 12.994200 -0.242716 4.980390 -88.181900 -4.523210 -68.082000 5.348090 -0.000007 -0.000001 -73.329200 24.137800 13.009700 24.328600 0.000019 0.000005 -1.432870 0.141335 -95.627600 22.291600 -0.000001 0.000005 8.672530 5.651970 -15.177900 12.994500 -0.242716 -4.980390 88.565200 4.359040 -71.766400 -5.348130 -0.000001 -0.000004 -62.847300 43.265100 -17.679400 -24.328900 0.000322 -0.000009 -6.089410 -0.388110 -86.358800 -22.291500 -0.000108 -0.000004 16.462000 5.587510 -10.628200 -2.192480 -6.469440 -0.000000 173.617000 -2.879550 -32.543300 39.081100 -0.000007 -0.000012 -0.284889 0.260694 47.539900 40.985400 -0.000006 -0.000013 4.985340 -5.511850 -68.083000 11.754300 -0.000000 0.000003 -0.000727 -0.011458 -17.042900 -2.192510 6.469440 -0.000001 175.665000 5.742690 172.949000 -39.081100 -0.002282 -0.040193 -0.003433 -0.000148 90.530200 -40.985400 0.000008 0.000006 5.057300 -7.558300 -37.390800 -11.754300 -0.000006 -0.000006 -0.024645 -0.191781 -24.418500
0.000000 0.000000 0.000000 0.000000 0.000000 -0.000000 4.877100 84.134900 3.825670 92.241300 0.245800 -0.976043 15.735700 0.000005 -0.000001 93.970600 81.720900 -96.016200 8.984550 -0.406207 -0.000000 8.777060 1.122720 -4.173940 16.377300 -0.000001 -0.000001 -1.585700 -2.219950 0.071380 6.456720 -0.000001 -0.000000 -2.119060 -3.913280 3.432590 12.994200 -0.242716 4.980390 -89.388000 -1.581910 -68.846500 5.348090 -0.000007 -0.000001 -69.594300 24.321800 -0.337547 24.328600 0.000019 0.000005 -3.062840 0.306160 -95.705500 22.291600 -0.000001 0.000005 10.019300 5.665410 -16.710400 12.994500 -0.242716 -4.980390 87.915000 6.028300 -70.881000 -5.348130 -0.000001 -0.000004 -66.876000 40.523300 -8.634410 -24.328900 0.000322 -0.000009 -1.839370 -0.464547 -75.670000 -22.291500 -0.000108 -0.000004 20.493000 5.597180 -11.183400 -2.192480 -6.469440 -0.000000 172.055000 -1.854020 -28.101300 39.081100 -0.000007 -0.000012 -0.661421 0.452876 55.602200 40.985400 -0.000006 -0.000013 4.598820 -5.967210 -78.885400 11.754300 -0.000000 0.000003 -0.000045 -0.000517 -16.597700 -2.192510 6.469440 -0.000001 175.466000 6.511580 162.742000 -39.081100 -0.002282 -0.040193 -0.242017 -0.068215 105.519000 -40.985400 0.000008 0.000006 9.563760 -9.141480 -37.259400 -11.754300 -0.000006 -0.000006 -0.022641 -0.181503 -23.994000
